<svg t="1685850366093" class="icon" viewBox="0 0 1024 1024" version="1.1" xmlns="http://www.w3.org/2000/svg" p-id="2404" width="32" height="32"><path d="M176.128 147.072c-109.205333 124.330667-39.68 364.672 152.277333 556.629333 187.605333 187.605333 416.810667 251.52 554.005334 154.325334a32 32 0 0 0 4.138666-3.477334l26.304-26.325333a96 96 0 0 0-5.76-141.077333l-109.781333-93.205334a96 96 0 0 0-139.136 15.850667l-29.824 40.064a32 32 0 0 1-40.789333 9.088c-46.634667-25.002667-87.722667-55.338667-123.392-91.008a521.258667 521.258667 0 0 1-88.618667-118.954667 32 32 0 0 1 11.242667-42.602666l35.072-21.696a96 96 0 0 0 22.442666-144.064l-99.413333-116.138667a96 96 0 0 0-140.821333-5.461333L177.557333 145.557333l-1.429333 1.493334z m73.194667 17.216a32 32 0 0 1 46.933333 1.813333l99.413333 116.138667a32 32 0 0 1-7.466666 48.021333l-35.072 21.696a96 96 0 0 0-33.706667 127.786667 585.216 585.216 0 0 0 99.477333 133.44c40.149333 40.149333 86.314667 74.218667 138.389334 102.165333a96 96 0 0 0 122.389333-27.285333l29.824-40.042667a32 32 0 0 1 46.378667-5.290666l109.802666 93.226666a32 32 0 0 1 1.92 47.018667l-24.32 24.32c-107.221333 73.408-302.656 18.133333-469.632-148.864-170.688-170.666667-230.293333-375.616-150.08-468.394667L249.322667 164.266667z" fill="#000000" p-id="2405"></path></svg>